<svg width="111" height="13" viewBox="0 0 111 13" fill="none" xmlns="http://www.w3.org/2000/svg">
<path d="M12.1094 1.39453C12.1875 0.613281 12.6172 0.190104 13.3984 0.125C13.763 0.125 14.0755 0.248698 14.3359 0.496094C14.6094 0.730469 14.7461 1.02995 14.7461 1.39453V10.6914C14.7331 11.056 14.5964 11.362 14.3359 11.6094C14.0755 11.8438 13.763 11.9609 13.3984 11.9609H5.19531C4.04948 11.9219 3.18359 11.6549 2.59766 11.1602C2.01172 10.6523 1.58854 10.0859 1.32812 9.46094C1.06771 8.82292 0.9375 8.17839 0.9375 7.52734C0.9375 6.85026 1.0612 6.19922 1.30859 5.57422C1.56901 4.9362 1.99219 4.36979 2.57812 3.875C3.17708 3.36719 3.93229 3.10677 4.84375 3.09375H9.76562C10.1302 3.09375 10.4362 3.22396 10.6836 3.48438C10.944 3.73177 11.0742 4.03776 11.0742 4.40234C11.0742 4.76693 10.944 5.07943 10.6836 5.33984C10.4362 5.58724 10.1302 5.71094 9.76562 5.71094H4.76562C4.51823 5.71094 4.30339 5.8151 4.12109 6.02344C3.9388 6.21875 3.80208 6.45312 3.71094 6.72656C3.63281 6.98698 3.59375 7.2474 3.59375 7.50781C3.59375 7.78125 3.63281 8.05469 3.71094 8.32812C3.80208 8.58854 3.9388 8.82292 4.12109 9.03125C4.30339 9.22656 4.51823 9.33073 4.76562 9.34375H11.6016C11.9401 9.33073 12.1094 9.16146 12.1094 8.83594V1.39453ZM17.7344 5.55469C17.9818 4.92969 18.3984 4.36979 18.9844 3.875C19.5833 3.36719 20.3385 3.10677 21.25 3.09375H28.5938C28.9583 3.09375 29.2643 3.22396 29.5117 3.48438C29.7721 3.73177 29.9023 4.03776 29.9023 4.40234C29.9023 4.76693 29.7721 5.07943 29.5117 5.33984C29.2643 5.58724 28.9583 5.71094 28.5938 5.71094H21.1719C20.9245 5.71094 20.7096 5.8151 20.5273 6.02344C20.3451 6.21875 20.2018 6.45312 20.0977 6.72656C20.0065 7 19.9609 7.26042 19.9609 7.50781V10.9258C19.8828 11.707 19.4531 12.1302 18.6719 12.1953C18.3073 12.1953 17.9883 12.0781 17.7148 11.8438C17.4544 11.5964 17.3242 11.2904 17.3242 10.9258V7.52734H17.3438C17.3438 6.85026 17.474 6.19271 17.7344 5.55469ZM42.7539 10.9258V6.21875C42.7539 5.89323 42.5846 5.72396 42.2461 5.71094H35.4102C35.1628 5.72396 34.9479 5.83464 34.7656 6.04297C34.5833 6.23828 34.4466 6.47266 34.3555 6.74609C34.2773 7.00651 34.2383 7.27344 34.2383 7.54688C34.2383 7.80729 34.2773 8.07422 34.3555 8.34766C34.4466 8.60807 34.5833 8.84245 34.7656 9.05078C34.9479 9.24609 35.1628 9.34375 35.4102 9.34375H40.4102C40.7747 9.34375 41.0807 9.47396 41.3281 9.73438C41.5885 9.98177 41.7188 10.2878 41.7188 10.6523C41.7188 11.0169 41.5885 11.3229 41.3281 11.5703C41.0807 11.8307 40.7747 11.9609 40.4102 11.9609H35.4883C34.5768 11.9479 33.8216 11.694 33.2227 11.1992C32.6367 10.6914 32.2135 10.125 31.9531 9.5C31.7057 8.86198 31.582 8.20443 31.582 7.52734C31.582 6.8763 31.7122 6.23828 31.9727 5.61328C32.2331 4.97526 32.6562 4.40885 33.2422 3.91406C33.8281 3.40625 34.694 3.13281 35.8398 3.09375H44.043C44.4076 3.09375 44.7201 3.21745 44.9805 3.46484C45.2409 3.69922 45.3776 3.9987 45.3906 4.36328V10.9258C45.3906 11.2904 45.2539 11.5964 44.9805 11.8438C44.7201 12.0781 44.4076 12.1953 44.043 12.1953C43.2617 12.1302 42.832 11.707 42.7539 10.9258ZM52.0508 12.2148C51.6081 12.2148 51.1654 12.1367 50.7227 11.9805C50.293 11.8242 49.8763 11.5964 49.4727 11.2969C49.069 10.9844 48.7174 10.5742 48.418 10.0664C48.1185 9.55859 47.9557 8.95312 47.9297 8.25V4.08984C47.9297 3.72526 48.0599 3.42578 48.3203 3.19141C48.5938 2.94401 48.9128 2.82031 49.2773 2.82031C50.0586 2.88542 50.4818 3.30859 50.5469 4.08984V8.09375C50.5599 8.40625 50.625 8.67318 50.7422 8.89453C50.8594 9.10286 50.9896 9.27214 51.1328 9.40234C51.276 9.51953 51.4193 9.61068 51.5625 9.67578C51.7188 9.72786 51.875 9.75391 52.0312 9.75391C52.1875 9.75391 52.3438 9.72786 52.5 9.67578C52.6562 9.61068 52.806 9.51953 52.9492 9.40234C53.0924 9.27214 53.2227 9.10286 53.3398 8.89453C53.457 8.67318 53.5156 8.40625 53.5156 8.09375V4.08984C53.5156 3.72526 53.6458 3.42578 53.9062 3.19141C54.1797 2.94401 54.4987 2.82031 54.8633 2.82031C55.6445 2.88542 56.0742 3.30859 56.1523 4.08984V8.09375C56.1654 8.40625 56.2305 8.66667 56.3477 8.875C56.4648 9.09635 56.5951 9.27214 56.7383 9.40234C56.8815 9.51953 57.0247 9.61068 57.168 9.67578C57.3242 9.72786 57.4805 9.75391 57.6367 9.75391C57.793 9.75391 57.9492 9.72786 58.1055 9.67578C58.2617 9.61068 58.4115 9.51953 58.5547 9.40234C58.6979 9.27214 58.8281 9.10286 58.9453 8.89453C59.0625 8.67318 59.1211 8.40625 59.1211 8.09375V4.08984C59.1211 3.72526 59.2513 3.42578 59.5117 3.19141C59.7852 2.94401 60.1042 2.82031 60.4688 2.82031C61.25 2.88542 61.6797 3.30859 61.7578 4.08984V8.25C61.7578 8.95312 61.6016 9.55859 61.2891 10.0664C60.9896 10.5742 60.638 10.9844 60.2344 11.2969C59.8438 11.5964 59.4271 11.8242 58.9844 11.9805C58.5547 12.1367 58.112 12.2148 57.6562 12.2148C57.2135 12.2148 56.7708 12.1367 56.3281 11.9805C55.8984 11.8242 55.4818 11.5898 55.0781 11.2773C55 11.2253 54.9284 11.1667 54.8633 11.1016C54.7852 11.1667 54.7135 11.2253 54.6484 11.2773C54.2448 11.5898 53.8216 11.8242 53.3789 11.9805C52.9492 12.1367 52.5065 12.2148 52.0508 12.2148ZM65.1367 7.3125C64.8503 7.3125 64.6029 7.21484 64.3945 7.01953C64.1862 6.8112 64.082 6.5638 64.082 6.27734C64.082 5.97786 64.1862 5.73047 64.3945 5.53516C64.6029 5.32682 64.8503 5.22266 65.1367 5.22266H68.4961C68.7826 5.22266 69.0299 5.32682 69.2383 5.53516C69.4466 5.73047 69.5508 5.97786 69.5508 6.27734C69.5508 6.5638 69.4466 6.8112 69.2383 7.01953C69.0299 7.21484 68.7826 7.3125 68.4961 7.3125H65.1367ZM75.8594 12.2148C75.4167 12.2148 74.974 12.1367 74.5312 11.9805C74.1016 11.8242 73.6849 11.5964 73.2812 11.2969C72.8776 10.9844 72.526 10.5742 72.2266 10.0664C71.9271 9.55859 71.7643 8.95312 71.7383 8.25V4.08984C71.7383 3.72526 71.8685 3.42578 72.1289 3.19141C72.4023 2.94401 72.7214 2.82031 73.0859 2.82031C73.8672 2.88542 74.2904 3.30859 74.3555 4.08984V8.09375C74.3685 8.40625 74.4336 8.67318 74.5508 8.89453C74.668 9.10286 74.7982 9.27214 74.9414 9.40234C75.0846 9.51953 75.2279 9.61068 75.3711 9.67578C75.5273 9.72786 75.6836 9.75391 75.8398 9.75391C75.9961 9.75391 76.1523 9.72786 76.3086 9.67578C76.4648 9.61068 76.6146 9.51953 76.7578 9.40234C76.901 9.27214 77.0312 9.10286 77.1484 8.89453C77.2656 8.67318 77.3242 8.40625 77.3242 8.09375V4.08984C77.3242 3.72526 77.4544 3.42578 77.7148 3.19141C77.9883 2.94401 78.3073 2.82031 78.6719 2.82031C79.4531 2.88542 79.8828 3.30859 79.9609 4.08984V8.09375C79.974 8.40625 80.0391 8.66667 80.1562 8.875C80.2734 9.09635 80.4036 9.27214 80.5469 9.40234C80.6901 9.51953 80.8333 9.61068 80.9766 9.67578C81.1328 9.72786 81.2891 9.75391 81.4453 9.75391C81.6016 9.75391 81.7578 9.72786 81.9141 9.67578C82.0703 9.61068 82.2201 9.51953 82.3633 9.40234C82.5065 9.27214 82.6367 9.10286 82.7539 8.89453C82.8711 8.67318 82.9297 8.40625 82.9297 8.09375V4.08984C82.9297 3.72526 83.0599 3.42578 83.3203 3.19141C83.5938 2.94401 83.9128 2.82031 84.2773 2.82031C85.0586 2.88542 85.4883 3.30859 85.5664 4.08984V8.25C85.5664 8.95312 85.4102 9.55859 85.0977 10.0664C84.7982 10.5742 84.4466 10.9844 84.043 11.2969C83.6523 11.5964 83.2357 11.8242 82.793 11.9805C82.3633 12.1367 81.9206 12.2148 81.4648 12.2148C81.0221 12.2148 80.5794 12.1367 80.1367 11.9805C79.707 11.8242 79.2904 11.5898 78.8867 11.2773C78.8086 11.2253 78.737 11.1667 78.6719 11.1016C78.5938 11.1667 78.5221 11.2253 78.457 11.2773C78.0534 11.5898 77.6302 11.8242 77.1875 11.9805C76.7578 12.1367 76.3151 12.2148 75.8594 12.2148ZM92.1484 11.9609C91.0026 11.9219 90.1367 11.6549 89.5508 11.1602C88.9648 10.6523 88.5417 10.0859 88.2812 9.46094C88.0208 8.82292 87.8906 8.17839 87.8906 7.52734C87.8906 6.85026 88.0143 6.19922 88.2617 5.57422C88.5221 4.9362 88.9453 4.36979 89.5312 3.875C90.1302 3.36719 90.8854 3.10677 91.7969 3.09375H99.2188C99.5833 3.09375 99.8893 3.21745 100.137 3.46484C100.397 3.69922 100.527 3.98568 100.527 4.32422C100.527 4.67578 100.397 4.97526 100.137 5.22266C99.8893 5.45703 99.5833 5.57422 99.2188 5.57422H91.9141C91.6276 5.57422 91.3737 5.67188 91.1523 5.86719C90.944 6.0625 90.7878 6.31641 90.6836 6.62891C90.5924 6.94141 90.5469 7.2474 90.5469 7.54688C90.5469 7.8724 90.5924 8.19141 90.6836 8.50391C90.7878 8.81641 90.944 9.07031 91.1523 9.26562C91.3737 9.44792 91.6276 9.54557 91.9141 9.55859H99.2188C99.5833 9.55859 99.8893 9.67578 100.137 9.91016C100.397 10.1445 100.527 10.4245 100.527 10.75C100.527 11.0885 100.397 11.375 100.137 11.6094C99.8893 11.8438 99.5833 11.9609 99.2188 11.9609H92.1484ZM100.293 7.48828C100.293 7.73568 100.182 7.95052 99.9609 8.13281C99.7656 8.30208 99.5182 8.38672 99.2188 8.38672H92.832C92.5326 8.38672 92.2786 8.30208 92.0703 8.13281C91.862 7.95052 91.7578 7.73568 91.7578 7.48828C91.7578 7.25391 91.862 7.04557 92.0703 6.86328C92.2786 6.69401 92.5326 6.60938 92.832 6.60938H99.2188C99.5182 6.60938 99.7721 6.70052 99.9805 6.88281C100.189 7.05208 100.293 7.25391 100.293 7.48828ZM104.121 0.125C104.473 0.138021 104.772 0.268229 105.02 0.515625C105.267 0.75 105.397 1.04297 105.41 1.39453V10.9648C105.332 11.7461 104.902 12.1693 104.121 12.2344C103.757 12.2344 103.438 12.1172 103.164 11.8828C102.904 11.6354 102.773 11.3294 102.773 10.9648V1.39453C102.786 1.02995 102.923 0.730469 103.184 0.496094C103.444 0.248698 103.757 0.125 104.121 0.125ZM109.238 0.125C109.59 0.138021 109.889 0.268229 110.137 0.515625C110.384 0.75 110.514 1.04297 110.527 1.39453V10.9648C110.449 11.7461 110.02 12.1693 109.238 12.2344C108.874 12.2344 108.555 12.1172 108.281 11.8828C108.021 11.6354 107.891 11.3294 107.891 10.9648V1.39453C107.904 1.02995 108.04 0.730469 108.301 0.496094C108.561 0.248698 108.874 0.125 109.238 0.125Z" fill="black" fill-opacity="0.71"/>
</svg>
