<svg width="132" height="16" viewBox="0 0 132 16" fill="none" xmlns="http://www.w3.org/2000/svg">
<path d="M13.5312 2.27344C13.625 1.33594 14.1406 0.828125 15.0781 0.75C15.5156 0.75 15.8906 0.898438 16.2031 1.19531C16.5312 1.47656 16.6953 1.83594 16.6953 2.27344V13.4297C16.6797 13.8672 16.5156 14.2344 16.2031 14.5312C15.8906 14.8125 15.5156 14.9531 15.0781 14.9531H5.23438C3.85938 14.9062 2.82031 14.5859 2.11719 13.9922C1.41406 13.3828 0.90625 12.7031 0.59375 11.9531C0.28125 11.1875 0.125 10.4141 0.125 9.63281C0.125 8.82031 0.273438 8.03906 0.570312 7.28906C0.882812 6.52344 1.39062 5.84375 2.09375 5.25C2.8125 4.64062 3.71875 4.32812 4.8125 4.3125H10.7188C11.1562 4.3125 11.5234 4.46875 11.8203 4.78125C12.1328 5.07812 12.2891 5.44531 12.2891 5.88281C12.2891 6.32031 12.1328 6.69531 11.8203 7.00781C11.5234 7.30469 11.1562 7.45312 10.7188 7.45312H4.71875C4.42188 7.45312 4.16406 7.57812 3.94531 7.82812C3.72656 8.0625 3.5625 8.34375 3.45312 8.67188C3.35938 8.98438 3.3125 9.29688 3.3125 9.60938C3.3125 9.9375 3.35938 10.2656 3.45312 10.5938C3.5625 10.9062 3.72656 11.1875 3.94531 11.4375C4.16406 11.6719 4.42188 11.7969 4.71875 11.8125H12.9219C13.3281 11.7969 13.5312 11.5938 13.5312 11.2031V2.27344ZM20.2812 7.26562C20.5781 6.51562 21.0781 5.84375 21.7812 5.25C22.5 4.64062 23.4062 4.32812 24.5 4.3125H33.3125C33.75 4.3125 34.1172 4.46875 34.4141 4.78125C34.7266 5.07812 34.8828 5.44531 34.8828 5.88281C34.8828 6.32031 34.7266 6.69531 34.4141 7.00781C34.1172 7.30469 33.75 7.45312 33.3125 7.45312H24.4062C24.1094 7.45312 23.8516 7.57812 23.6328 7.82812C23.4141 8.0625 23.2422 8.34375 23.1172 8.67188C23.0078 9 22.9531 9.3125 22.9531 9.60938V13.7109C22.8594 14.6484 22.3438 15.1562 21.4062 15.2344C20.9688 15.2344 20.5859 15.0938 20.2578 14.8125C19.9453 14.5156 19.7891 14.1484 19.7891 13.7109V9.63281H19.8125C19.8125 8.82031 19.9688 8.03125 20.2812 7.26562ZM50.3047 13.7109V8.0625C50.3047 7.67188 50.1016 7.46875 49.6953 7.45312H41.4922C41.1953 7.46875 40.9375 7.60156 40.7188 7.85156C40.5 8.08594 40.3359 8.36719 40.2266 8.69531C40.1328 9.00781 40.0859 9.32812 40.0859 9.65625C40.0859 9.96875 40.1328 10.2891 40.2266 10.6172C40.3359 10.9297 40.5 11.2109 40.7188 11.4609C40.9375 11.6953 41.1953 11.8125 41.4922 11.8125H47.4922C47.9297 11.8125 48.2969 11.9688 48.5938 12.2812C48.9062 12.5781 49.0625 12.9453 49.0625 13.3828C49.0625 13.8203 48.9062 14.1875 48.5938 14.4844C48.2969 14.7969 47.9297 14.9531 47.4922 14.9531H41.5859C40.4922 14.9375 39.5859 14.6328 38.8672 14.0391C38.1641 13.4297 37.6562 12.75 37.3438 12C37.0469 11.2344 36.8984 10.4453 36.8984 9.63281C36.8984 8.85156 37.0547 8.08594 37.3672 7.33594C37.6797 6.57031 38.1875 5.89062 38.8906 5.29688C39.5938 4.6875 40.6328 4.35938 42.0078 4.3125H51.8516C52.2891 4.3125 52.6641 4.46094 52.9766 4.75781C53.2891 5.03906 53.4531 5.39844 53.4688 5.83594V13.7109C53.4688 14.1484 53.3047 14.5156 52.9766 14.8125C52.6641 15.0938 52.2891 15.2344 51.8516 15.2344C50.9141 15.1562 50.3984 14.6484 50.3047 13.7109ZM61.4609 15.2578C60.9297 15.2578 60.3984 15.1641 59.8672 14.9766C59.3516 14.7891 58.8516 14.5156 58.3672 14.1562C57.8828 13.7812 57.4609 13.2891 57.1016 12.6797C56.7422 12.0703 56.5469 11.3438 56.5156 10.5V5.50781C56.5156 5.07031 56.6719 4.71094 56.9844 4.42969C57.3125 4.13281 57.6953 3.98438 58.1328 3.98438C59.0703 4.0625 59.5781 4.57031 59.6562 5.50781V10.3125C59.6719 10.6875 59.75 11.0078 59.8906 11.2734C60.0312 11.5234 60.1875 11.7266 60.3594 11.8828C60.5312 12.0234 60.7031 12.1328 60.875 12.2109C61.0625 12.2734 61.25 12.3047 61.4375 12.3047C61.625 12.3047 61.8125 12.2734 62 12.2109C62.1875 12.1328 62.3672 12.0234 62.5391 11.8828C62.7109 11.7266 62.8672 11.5234 63.0078 11.2734C63.1484 11.0078 63.2188 10.6875 63.2188 10.3125V5.50781C63.2188 5.07031 63.375 4.71094 63.6875 4.42969C64.0156 4.13281 64.3984 3.98438 64.8359 3.98438C65.7734 4.0625 66.2891 4.57031 66.3828 5.50781V10.3125C66.3984 10.6875 66.4766 11 66.6172 11.25C66.7578 11.5156 66.9141 11.7266 67.0859 11.8828C67.2578 12.0234 67.4297 12.1328 67.6016 12.2109C67.7891 12.2734 67.9766 12.3047 68.1641 12.3047C68.3516 12.3047 68.5391 12.2734 68.7266 12.2109C68.9141 12.1328 69.0938 12.0234 69.2656 11.8828C69.4375 11.7266 69.5938 11.5234 69.7344 11.2734C69.875 11.0078 69.9453 10.6875 69.9453 10.3125V5.50781C69.9453 5.07031 70.1016 4.71094 70.4141 4.42969C70.7422 4.13281 71.125 3.98438 71.5625 3.98438C72.5 4.0625 73.0156 4.57031 73.1094 5.50781V10.5C73.1094 11.3438 72.9219 12.0703 72.5469 12.6797C72.1875 13.2891 71.7656 13.7812 71.2812 14.1562C70.8125 14.5156 70.3125 14.7891 69.7812 14.9766C69.2656 15.1641 68.7344 15.2578 68.1875 15.2578C67.6562 15.2578 67.125 15.1641 66.5938 14.9766C66.0781 14.7891 65.5781 14.5078 65.0938 14.1328C65 14.0703 64.9141 14 64.8359 13.9219C64.7422 14 64.6562 14.0703 64.5781 14.1328C64.0938 14.5078 63.5859 14.7891 63.0547 14.9766C62.5391 15.1641 62.0078 15.2578 61.4609 15.2578ZM77.1641 9.375C76.8203 9.375 76.5234 9.25781 76.2734 9.02344C76.0234 8.77344 75.8984 8.47656 75.8984 8.13281C75.8984 7.77344 76.0234 7.47656 76.2734 7.24219C76.5234 6.99219 76.8203 6.86719 77.1641 6.86719H81.1953C81.5391 6.86719 81.8359 6.99219 82.0859 7.24219C82.3359 7.47656 82.4609 7.77344 82.4609 8.13281C82.4609 8.47656 82.3359 8.77344 82.0859 9.02344C81.8359 9.25781 81.5391 9.375 81.1953 9.375H77.1641ZM90.0312 15.2578C89.5 15.2578 88.9688 15.1641 88.4375 14.9766C87.9219 14.7891 87.4219 14.5156 86.9375 14.1562C86.4531 13.7812 86.0312 13.2891 85.6719 12.6797C85.3125 12.0703 85.1172 11.3438 85.0859 10.5V5.50781C85.0859 5.07031 85.2422 4.71094 85.5547 4.42969C85.8828 4.13281 86.2656 3.98438 86.7031 3.98438C87.6406 4.0625 88.1484 4.57031 88.2266 5.50781V10.3125C88.2422 10.6875 88.3203 11.0078 88.4609 11.2734C88.6016 11.5234 88.7578 11.7266 88.9297 11.8828C89.1016 12.0234 89.2734 12.1328 89.4453 12.2109C89.6328 12.2734 89.8203 12.3047 90.0078 12.3047C90.1953 12.3047 90.3828 12.2734 90.5703 12.2109C90.7578 12.1328 90.9375 12.0234 91.1094 11.8828C91.2812 11.7266 91.4375 11.5234 91.5781 11.2734C91.7188 11.0078 91.7891 10.6875 91.7891 10.3125V5.50781C91.7891 5.07031 91.9453 4.71094 92.2578 4.42969C92.5859 4.13281 92.9688 3.98438 93.4062 3.98438C94.3438 4.0625 94.8594 4.57031 94.9531 5.50781V10.3125C94.9688 10.6875 95.0469 11 95.1875 11.25C95.3281 11.5156 95.4844 11.7266 95.6562 11.8828C95.8281 12.0234 96 12.1328 96.1719 12.2109C96.3594 12.2734 96.5469 12.3047 96.7344 12.3047C96.9219 12.3047 97.1094 12.2734 97.2969 12.2109C97.4844 12.1328 97.6641 12.0234 97.8359 11.8828C98.0078 11.7266 98.1641 11.5234 98.3047 11.2734C98.4453 11.0078 98.5156 10.6875 98.5156 10.3125V5.50781C98.5156 5.07031 98.6719 4.71094 98.9844 4.42969C99.3125 4.13281 99.6953 3.98438 100.133 3.98438C101.07 4.0625 101.586 4.57031 101.68 5.50781V10.5C101.68 11.3438 101.492 12.0703 101.117 12.6797C100.758 13.2891 100.336 13.7812 99.8516 14.1562C99.3828 14.5156 98.8828 14.7891 98.3516 14.9766C97.8359 15.1641 97.3047 15.2578 96.7578 15.2578C96.2266 15.2578 95.6953 15.1641 95.1641 14.9766C94.6484 14.7891 94.1484 14.5078 93.6641 14.1328C93.5703 14.0703 93.4844 14 93.4062 13.9219C93.3125 14 93.2266 14.0703 93.1484 14.1328C92.6641 14.5078 92.1562 14.7891 91.625 14.9766C91.1094 15.1641 90.5781 15.2578 90.0312 15.2578ZM109.578 14.9531C108.203 14.9062 107.164 14.5859 106.461 13.9922C105.758 13.3828 105.25 12.7031 104.938 11.9531C104.625 11.1875 104.469 10.4141 104.469 9.63281C104.469 8.82031 104.617 8.03906 104.914 7.28906C105.227 6.52344 105.734 5.84375 106.438 5.25C107.156 4.64062 108.062 4.32812 109.156 4.3125H118.062C118.5 4.3125 118.867 4.46094 119.164 4.75781C119.477 5.03906 119.633 5.38281 119.633 5.78906C119.633 6.21094 119.477 6.57031 119.164 6.86719C118.867 7.14844 118.5 7.28906 118.062 7.28906H109.297C108.953 7.28906 108.648 7.40625 108.383 7.64062C108.133 7.875 107.945 8.17969 107.82 8.55469C107.711 8.92969 107.656 9.29688 107.656 9.65625C107.656 10.0469 107.711 10.4297 107.82 10.8047C107.945 11.1797 108.133 11.4844 108.383 11.7188C108.648 11.9375 108.953 12.0547 109.297 12.0703H118.062C118.5 12.0703 118.867 12.2109 119.164 12.4922C119.477 12.7734 119.633 13.1094 119.633 13.5C119.633 13.9062 119.477 14.25 119.164 14.5312C118.867 14.8125 118.5 14.9531 118.062 14.9531H109.578ZM119.352 9.58594C119.352 9.88281 119.219 10.1406 118.953 10.3594C118.719 10.5625 118.422 10.6641 118.062 10.6641H110.398C110.039 10.6641 109.734 10.5625 109.484 10.3594C109.234 10.1406 109.109 9.88281 109.109 9.58594C109.109 9.30469 109.234 9.05469 109.484 8.83594C109.734 8.63281 110.039 8.53125 110.398 8.53125H118.062C118.422 8.53125 118.727 8.64062 118.977 8.85938C119.227 9.0625 119.352 9.30469 119.352 9.58594ZM123.945 0.75C124.367 0.765625 124.727 0.921875 125.023 1.21875C125.32 1.5 125.477 1.85156 125.492 2.27344V13.7578C125.398 14.6953 124.883 15.2031 123.945 15.2812C123.508 15.2812 123.125 15.1406 122.797 14.8594C122.484 14.5625 122.328 14.1953 122.328 13.7578V2.27344C122.344 1.83594 122.508 1.47656 122.82 1.19531C123.133 0.898438 123.508 0.75 123.945 0.75ZM130.086 0.75C130.508 0.765625 130.867 0.921875 131.164 1.21875C131.461 1.5 131.617 1.85156 131.633 2.27344V13.7578C131.539 14.6953 131.023 15.2031 130.086 15.2812C129.648 15.2812 129.266 15.1406 128.938 14.8594C128.625 14.5625 128.469 14.1953 128.469 13.7578V2.27344C128.484 1.83594 128.648 1.47656 128.961 1.19531C129.273 0.898438 129.648 0.75 130.086 0.75Z" fill="black" fill-opacity="0.71"/>
</svg>
